<svg xmlns="http://www.w3.org/2000/svg" viewBox="0 0 240 220" fill="#DC2626">
  <!-- House body (left portion) with chimney -->
  <path d="
    M 40 95
    L 40 200
    L 120 200
    L 120 95
    L 120 60
    L 100 60
    L 100 25
    L 70 25
    L 70 65
    Z
  "/>
  <!-- Maple leaf (right portion, connected to house) -->
  <path d="
    M 120 60
    L 132 72
    L 125 74
    L 148 100
    L 138 97
    L 155 125
    L 142 120
    L 150 148
    L 132 134
    L 136 158
    L 120 140
    L 120 200
    L 148 200
    L 148 148
    L 160 162
    L 158 135
    L 182 145
    L 168 120
    L 195 115
    L 168 95
    L 182 87
    L 155 68
    L 164 62
    L 140 42
    L 146 36
    L 128 20
    L 122 32
    L 120 28
    Z
  "/>
</svg>
